<svg id="Layer_1" data-name="Layer 1" xmlns="http://www.w3.org/2000/svg" xmlns:xlink="http://www.w3.org/1999/xlink" viewBox="0 0 140 52"><defs><style>.cls-1,.cls-11,.cls-14,.cls-3,.cls-9{fill:none;}.cls-1{stroke:#1499ac;stroke-linejoin:round;}.cls-1,.cls-3{stroke-linecap:round;}.cls-2{fill:#1499ac;fill-rule:evenodd;}.cls-3{stroke:#fff;}.cls-4,.cls-8{fill:#164b99;}.cls-5{fill:#fff;}.cls-6{fill:#ceddf1;}.cls-7{fill:#1a345f;}.cls-8,.cls-9{stroke:#164b99;}.cls-9{stroke-width:0.5px;}.cls-10{fill:url(#linear-gradient);}.cls-11{stroke:#226ab4;stroke-width:0.35px;}.cls-12{fill:#13487f;}.cls-13{fill:#9dbce3;}.cls-14{stroke:#397abe;stroke-width:0.25px;}.cls-15{fill:#739cd2;}.cls-16{fill:#f7fcfe;}</style><linearGradient id="linear-gradient" x1="113.16" y1="44.2" x2="113.16" y2="38.81" gradientTransform="matrix(1, 0, 0, -1, 0, 58)" gradientUnits="userSpaceOnUse"><stop offset="0" stop-color="#3184c6"/><stop offset="1" stop-color="#183a66" stop-opacity="0.85"/></linearGradient></defs><path class="cls-1" d="M127.73,12.24V28.35a3.08,3.08,0,0,1-3.07,3.07h0"/><path class="cls-1" d="M129.66,5.05V1.38"/><path class="cls-1" d="M125.49,5.05V1.38"/><path class="cls-2" d="M130.76,7.5a1,1,0,0,1,1,1v6.39a4.2,4.2,0,0,1-8.33,0V8.48a1,1,0,0,1,1-1Z"/><path class="cls-3" d="M129,9.14l-3.82,2.53a.25.25,0,0,0,.14.45h4a.24.24,0,0,1,.15.44l-3.93,3"/><path class="cls-4" d="M124.88,48.42c0,.55-25.89,1-57.82,1S9.24,49,9.24,48.42s25.89-2,57.82-2S124.88,47.88,124.88,48.42Z"/><path class="cls-5" d="M37,21.36A105.26,105.26,0,0,1,61.9,10.64C71.1,8,87.65,9.31,110.09,12.79l-1.63,1.07,5.69,2.68,5.68,2.68,4.88,1.07L123.63,24c1.09,4,.91,6.11.27,10.46l1,2-1,3.92-11.48,2.27-14.88,1.7s-9.6-.79-14.52-1-47.65,0-47.65,0l-15,.49H11.54L8.29,41.2l2.17-2.14V37.45L8.83,36.38l-.54-3.76L9.92,31l-.54-2.14C14.79,25.12,20.75,22.44,37,21.36Z"/><path class="cls-6" d="M38.72,30.64l-2,1.26,1.44,10,55.15-2.94L94.5,28.73l-7.83-1.34a14,14,0,0,0-2.82-.19L45.43,28.6A13.76,13.76,0,0,0,38.72,30.64Z"/><path class="cls-7" d="M95.7,47.44a13.75,13.75,0,0,1-4.14-3.92h5.15l4.65,3.92Z"/><path class="cls-7" d="M36.16,48.12a10.71,10.71,0,0,0,4.44-4.6l-5.79.31-5,4.59Z"/><path class="cls-8" d="M105,14.64l-.24,0c-1.07-.15-2.6-.36-4.47-.6-3.73-.48-8.8-1.09-14.14-1.62s-11-1-15.79-1.06-8.84.09-11,.79a114.33,114.33,0,0,0-20.86,9.05h.63c1.43,0,3.49,0,6-.08,5-.12,11.63-.36,18.48-.65,13.7-.58,28-1.36,30.75-1.78a30.46,30.46,0,0,0,8-2.67C103.35,15.5,104.27,15,105,14.64Z"/><path class="cls-6" d="M85.72,39c7-1.08,28-11.8,38.81-18.47l-.92,3.54a23.49,23.49,0,0,1,.46,10.59l.81,1.8-1,3.88-10.67,2.23-17.73,1.7s-9.16-1.13-12.59-1.13-71.46.61-71.46.61L8.26,41.16,39.7,40.6S78.68,40.07,85.72,39Z"/><path class="cls-4" d="M39.7,40.58s40.66-.85,46-1.73c2.69-.45,9.73-3.61,17.54-4.49,8,2.22,16.29.55,20.81-.2l1,2.42-1.21,4-10.71,2.13L95.46,44.54s-8.33-.89-11.76-.89-71.63.89-71.63.89L8.26,41.18Z"/><path class="cls-9" d="M124,34.17c.64-4.34.68-6.1-.41-10.13l1.08-3.75-4.88-1.07-5.68-2.68-5.69-2.68,1.63-1.07C87.65,9.31,71.1,8,61.9,10.64A105.26,105.26,0,0,0,37,21.36c-16.24,1.08-22.2,3.76-27.61,7.51L9.92,31,8.29,32.62l.54,3.76,1.63,1.07v1.61L8.29,41.2"/><path class="cls-10" d="M106.3,14.36,108,13.8l12,5.66h-2.29Z"/><path class="cls-11" d="M124.62,20.41C113.78,27.08,92.76,37.92,85.72,39s-49.24,1.63-49.24,1.63L8.33,41.1"/><path class="cls-12" d="M66,20.23c2.62-.08,3.08-.11,5.78-.24,0,0,1.08-1.32.88-2.31s-2.34-1.79-3.49-1.3a2.39,2.39,0,0,0-.32.16,3,3,0,0,0-.7.51A10.75,10.75,0,0,0,66,20.23Z"/><path class="cls-12" d="M66,20.23c2.62-.08,3.08-.11,5.78-.24,0,0,1.08-1.32.88-2.31s-2.34-1.79-3.49-1.3a2.39,2.39,0,0,0-.32.16,3,3,0,0,0-.7.51A10.75,10.75,0,0,0,66,20.23Z"/><path class="cls-12" d="M66,20.23c2.62-.08,3.08-.11,5.78-.24,0,0,1.08-1.32.88-2.31s-2.34-1.79-3.49-1.3a2.39,2.39,0,0,0-.32.16,3,3,0,0,0-.7.51A10.75,10.75,0,0,0,66,20.23Z"/><path class="cls-12" d="M92.22,19.15c2.51-.43,2.14-.32,4.78-.77,0,0,.7-1.45.46-2.12s-2.8-1.07-3.18-.85a1.87,1.87,0,0,0-.29.2,2.81,2.81,0,0,0-.63.6A8.58,8.58,0,0,0,92.22,19.15Z"/><path class="cls-12" d="M92.22,19.15c2.51-.43,2.14-.32,4.78-.77,0,0,.7-1.45.46-2.12s-2.8-1.07-3.18-.85a1.87,1.87,0,0,0-.29.2,2.81,2.81,0,0,0-.63.6A8.58,8.58,0,0,0,92.22,19.15Z"/><path class="cls-12" d="M92.22,19.15c2.51-.43,2.14-.32,4.78-.77,0,0,.7-1.45.46-2.12s-2.8-1.07-3.18-.85a1.87,1.87,0,0,0-.29.2,2.81,2.81,0,0,0-.63.6A8.58,8.58,0,0,0,92.22,19.15Z"/><path class="cls-13" d="M35.73,27.26l-1.07-.49c20.49-1.71,35.29-2.13,67.51-1.94-24.92.93-39.3.74-63.95,2.87A5,5,0,0,1,35.73,27.26Z"/><path class="cls-14" d="M72,11.25l-2.4,9.52c-1.72,3.18-2.37,9.65-2,19.07M40.29,21.42c-1.47,6.33-1.68,10.8,0,18.9M95.64,18.77s3.73,3.69,3.73,8.26"/><path class="cls-4" d="M14.07,37.76a13.18,13.18,0,0,1,26.27,2.15c-.4,4.84-.74,4.31-16.63,5.33C14.73,44.6,13.47,44.94,14.07,37.76Z"/><circle class="cls-15" cx="27.37" cy="38.13" r="10.29"/><path class="cls-4" d="M27.37,46.46a8.33,8.33,0,1,1,8.33-8.33A8.32,8.32,0,0,1,27.37,46.46Z"/><path class="cls-16" d="M27.31,40l.52,5.45a.48.48,0,0,1-.62.52l-4.35-1.26,3.05-1.28a1,1,0,0,0,.56-.62Z"/><path class="cls-16" d="M25.15,38.66,19.9,40.82a.48.48,0,0,1-.67-.44L19.13,36l2.2,2.4a1,1,0,0,0,.75.32Z"/><path class="cls-16" d="M25.76,36.25,22,32.14a.5.5,0,0,1,.21-.8l4.24-1.44-1.67,2.75a1,1,0,0,0-.08.85Z"/><path class="cls-16" d="M28.33,36.08l2.92-4.72a.49.49,0,0,1,.8-.05L34.8,34.8l-3.26-.7a1,1,0,0,0-.79.17Z"/><path class="cls-16" d="M29.29,38.38l5.53,1.23a.48.48,0,0,1,.29.76l-2.55,3.56-.32-3.18A1,1,0,0,0,31.8,40Z"/><path class="cls-4" d="M91,38.2c0-6.85,5.9-12.41,13.18-12.41s13.19,5.56,13.19,12.41c0,4.62-2,4.15-16.13,6.34C93.35,43.75,91,45.05,91,38.2Z"/><circle class="cls-15" cx="104.79" cy="38.13" r="10.29"/><path class="cls-4" d="M104.79,46.46a8.33,8.33,0,1,1,8.33-8.33A8.32,8.32,0,0,1,104.79,46.46Z"/><path class="cls-16" d="M104.74,40l.51,5.45a.49.49,0,0,1-.62.52l-4.35-1.26,3-1.28a1,1,0,0,0,.56-.62Z"/><path class="cls-16" d="M102.57,38.66l-5.25,2.16a.48.48,0,0,1-.67-.44L96.55,36l2.2,2.4a1,1,0,0,0,.75.32Z"/><path class="cls-16" d="M103.18,36.25l-3.72-4.11a.5.5,0,0,1,.21-.8l4.24-1.44-1.67,2.75a1,1,0,0,0-.08.85Z"/><path class="cls-16" d="M105.75,36.08l2.92-4.72a.49.49,0,0,1,.8-.05l2.75,3.49L109,34.1a1,1,0,0,0-.79.17Z"/><path class="cls-16" d="M106.71,38.38l5.53,1.23a.48.48,0,0,1,.29.76L110,43.93l-.32-3.18a1,1,0,0,0-.44-.72Z"/></svg>