<svg id="Layer_1" data-name="Layer 1" xmlns="http://www.w3.org/2000/svg" viewBox="0 0 140 52"><defs><style>.cls-1,.cls-6{fill:#164b99;}.cls-2{fill:#1a345f;}.cls-10,.cls-3{fill:#fff;}.cls-4{fill:#ceddf1;}.cls-11,.cls-5,.cls-8,.cls-9{fill:none;}.cls-5,.cls-8{stroke:#397abe;}.cls-5{stroke-width:0.35px;}.cls-10,.cls-6{stroke:#164b99;}.cls-7{fill:#13487f;}.cls-8{stroke-width:0.15px;}.cls-9{stroke:#1a345f;stroke-linejoin:round;}.cls-11,.cls-9{stroke-linecap:round;}.cls-10{stroke-width:2px;}.cls-11{stroke:#d7ebf9;stroke-width:0.75px;}</style></defs><ellipse class="cls-1" cx="72.24" cy="48.39" rx="60.27" ry="0.98"/><path class="cls-2" d="M38.17,48.47a28.15,28.15,0,0,0,4-4.64H38.84l-4,4.64Z"/><path class="cls-2" d="M102.51,48.47a28.15,28.15,0,0,1-4-4.64h3.36l4,4.64Z"/><path class="cls-3" d="M124.37,17h5.56l-1.16,4.26a29.71,29.71,0,0,1,1.67,7l1.9,4.88c.43,2.94-.1,4.55-1.14,5.18-2.31,1.38-13.52,3.38-13.52,3.38l-15.47,1.59-61.79.88H26.08S10,42.28,11.14,41.7s.64-5.62,1-9.76l2.45-1.43,2.37-2.19a6.83,6.83,0,0,1,2.32-1.41c6.62-2.36,9.13-2.83,17.25-4.7a19.46,19.46,0,0,0,4-1.43C50,16.21,62.11,11.17,68.11,10.09a83.21,83.21,0,0,1,24.5,0c7.84,1.2,15.84,3.08,27.81,6.38A14.59,14.59,0,0,0,124.37,17Z"/><path class="cls-4" d="M120.38,23.51l8.84-.57s.55.5,1.22,5.2l1.9,4.88c.43,2.94-.1,4.55-1.14,5.18-2.31,1.38-13.52,3.38-13.52,3.38L102.9,43.42l-62.48.63H26.08L17,42.93l-5.77-1.09a16.35,16.35,0,0,0,.7-4.91,31.6,31.6,0,0,1,.25-5.11l1.91-1,13.16,1,5.54-.69a7.07,7.07,0,0,0,1.51-.36l3.95-1.45a18.49,18.49,0,0,1,4.82-1.07l22.69-1.92L93.13,24A203.49,203.49,0,0,0,120.38,23.51Z"/><path class="cls-1" d="M39.89,43.3s34.42.1,40.37-1.22S102.6,34,102.6,34l14.1,2.11L131.92,32l.59,2.63v2l-1.47,2L116.7,42.08,101.64,43.3l-61.75.81Z"/><path class="cls-5" d="M26.08,44.17S10,42.28,11.14,41.7s.64-5.62,1-9.76l2.45-1.43,2.37-2.19a6.83,6.83,0,0,1,2.32-1.41c6.62-2.36,9.13-2.83,17.25-4.7a19.46,19.46,0,0,0,4-1.43C50,16.21,62.11,11.17,68.11,10.09a83.21,83.21,0,0,1,24.5,0c7.84,1.2,15.84,3.08,27.81,6.38a14.59,14.59,0,0,0,4,.54H130l-1.22,4.26a29.71,29.71,0,0,1,1.67,7l1.9,4.88c.43,2.94-.1,4.55-1.14,5.18-2.31,1.38-13.52,3.38-13.52,3.38m-15.47,1.59-62.72.88"/><path class="cls-6" d="M116.15,17.42c-9.05-2.91-17.8-4.47-28.43-5.77-11.79-1-14.52-.8-19.59.16C61.67,13,51.78,17.31,42.79,22.67a1,1,0,0,0,0,1.64l.67.4.46,0,1.76-.17L52,23.89,71.85,22c14.78-1.43,30.58-3,34.69-3.43s7-.81,8.95-1.05Z"/><path class="cls-7" d="M73.12,22a32,32,0,0,1,6.48-.88,1.87,1.87,0,0,0,.15-1.53c-.21-1.05-2.53-1.94-3.81-1.4a3.7,3.7,0,0,0-.35.17,3.54,3.54,0,0,0-.78.57A9.75,9.75,0,0,0,73.12,22Z"/><path class="cls-7" d="M73.12,22a32,32,0,0,1,6.48-.88,1.87,1.87,0,0,0,.15-1.53c-.21-1.05-2.53-1.94-3.81-1.4a3.7,3.7,0,0,0-.35.17,3.54,3.54,0,0,0-.78.57A9.75,9.75,0,0,0,73.12,22Z"/><path class="cls-7" d="M73.12,22a32,32,0,0,1,6.48-.88,1.87,1.87,0,0,0,.15-1.53c-.21-1.05-2.53-1.94-3.81-1.4a3.7,3.7,0,0,0-.35.17,3.54,3.54,0,0,0-.78.57A9.75,9.75,0,0,0,73.12,22Z"/><path class="cls-7" d="M103.49,19.23a32.18,32.18,0,0,1,6.49-.88,1.89,1.89,0,0,0,.15-1.54c-.21-1-2.53-1.94-3.81-1.4a2.91,2.91,0,0,0-.35.18,3.33,3.33,0,0,0-.78.57A9.8,9.8,0,0,0,103.49,19.23Z"/><path class="cls-7" d="M103.49,19.23a32.18,32.18,0,0,1,6.49-.88,1.89,1.89,0,0,0,.15-1.54c-.21-1-2.53-1.94-3.81-1.4a2.91,2.91,0,0,0-.35.18,3.33,3.33,0,0,0-.78.57A9.8,9.8,0,0,0,103.49,19.23Z"/><path class="cls-7" d="M103.49,19.23a32.18,32.18,0,0,1,6.49-.88,1.89,1.89,0,0,0,.15-1.54c-.21-1-2.53-1.94-3.81-1.4a2.91,2.91,0,0,0-.35.18,3.33,3.33,0,0,0-.78.57A9.8,9.8,0,0,0,103.49,19.23Z"/><path class="cls-1" d="M49.79,18.12a79.72,79.72,0,0,0-7.65,4.11,1.4,1.4,0,0,0-.24,2.14l.49.52.44.33,5.75-.51Z"/><path class="cls-1" d="M81.08,10.74h-3L75.72,22l4.86-.43Z"/><path class="cls-1" d="M111.69,15.59l-8.5-2,3,5.48,12.07-1.46Z"/><path class="cls-8" d="M79.62,10.64,78.5,21.8c-.73,2.93-.4,12.33-.16,17.18a3,3,0,0,1-2.79,3.11c-5.9.28-19.39.88-29.09.89a1,1,0,0,1-1-.86C44.44,33.45,44.4,30.59,45,26c.61-4.71,1.19-5.76,1.19-5.76m59.91-1.19c1.46,2.72,1.6,3.7-7,16.49"/><path class="cls-1" d="M82.5,23.36l46.19-4.53-.7,1.84Z"/><path class="cls-1" d="M85.91,37.5,40.49,42.71l-.06-2.22Z"/><path class="cls-9" d="M131.56,39,117.8,42.39m-16.19,1.47-62.29.75M11,42.33l13.43,2.28"/><path class="cls-10" d="M22.74,39.08a8.79,8.79,0,1,1,8.79,8.67A8.73,8.73,0,0,1,22.74,39.08Z"/><ellipse class="cls-1" cx="31.53" cy="39.08" rx="7.02" ry="6.93"/><path class="cls-11" d="M31.54,41.55v4.63"/><path class="cls-11" d="M29.18,39.86,24.7,41.29"/><path class="cls-11" d="M30.08,37.13l-2.77-3.74"/><path class="cls-11" d="M33,37.13l2.77-3.74"/><path class="cls-11" d="M33.89,39.86l4.47,1.43"/><path class="cls-10" d="M100.16,39.08A8.79,8.79,0,1,1,109,47.75,8.73,8.73,0,0,1,100.16,39.08Z"/><ellipse class="cls-1" cx="108.95" cy="39.08" rx="7.02" ry="6.93"/><path class="cls-11" d="M109,41.55v4.63"/><path class="cls-11" d="M106.6,39.86l-4.48,1.43"/><path class="cls-11" d="M107.5,37.13l-2.77-3.74"/><path class="cls-11" d="M110.41,37.13l2.77-3.74"/><path class="cls-11" d="M111.31,39.86l4.47,1.43"/></svg>