<svg id="Layer_1" data-name="Layer 1" xmlns="http://www.w3.org/2000/svg" xmlns:xlink="http://www.w3.org/1999/xlink" viewBox="0 0 140 52"><defs><style>.cls-1{fill:#1a345f;}.cls-2,.cls-8{fill:#164b99;}.cls-10,.cls-3{fill:#fff;}.cls-4{fill:url(#linear-gradient);}.cls-11,.cls-12,.cls-5,.cls-6,.cls-7{fill:none;}.cls-5{stroke:#739cd2;stroke-linecap:round;}.cls-10,.cls-6,.cls-8{stroke:#164b99;}.cls-6{stroke-width:0.35px;}.cls-7{stroke:#1a345f;stroke-width:2px;}.cls-9{fill:#13487f;}.cls-10{stroke-width:1.5px;}.cls-11{stroke:#fff;}.cls-12{stroke:#397abe;stroke-width:0.25px;}</style><linearGradient id="linear-gradient" x1="70" y1="31.62" x2="70" y2="12.09" gradientTransform="matrix(1, 0, 0, -1, 0, 57)" gradientUnits="userSpaceOnUse"><stop offset="0" stop-color="#ceddf1"/><stop offset="1" stop-color="#ceddf1" stop-opacity="0"/></linearGradient></defs><path class="cls-1" d="M34.33,48.53A26.25,26.25,0,0,0,38,44.29H35l-3.68,4.24Z"/><path class="cls-1" d="M101.27,48.45a32,32,0,0,1-4.81-4.9h4l4.81,4.9Z"/><ellipse class="cls-2" cx="68.53" cy="48.45" rx="59.78" ry="0.98"/><path class="cls-3" d="M115.34,42.35l14.07-2.42a22.58,22.58,0,0,0,1.84-9.08L128.8,29l1.53-1.82L129.41,26l.92-.61c-.07-1.11-.18-2.31-.3-3.63l-12.86-1.82c-9.61-3.92-14.69-6.66-22.93-8.08s-23.72-.35-30.32,1.42-10.8,5.1-17.14,9.09a187.9,187.9,0,0,0-33.67,4.84l-3.06,3v2.42L8.83,33.87a29.61,29.61,0,0,0,.61,8.48l11.63,1.82Z"/><path class="cls-4" d="M115.34,43l14.07-2.56a25.09,25.09,0,0,0,1.84-9.61L128.8,28.9,130.33,27l-.92-1.28c.13,1.4-.07-1.18,0,0,0,0-5.36.53-9.56,1.44-4.43,1-7.58,2.28-12.58,3C99.05,32,92.18,27.82,86.34,28.4c-40.35,1.92-50.59,4.34-62.69.5-3.81-.51-13.43.93-13.43.93l-.17,2.91L8.83,34a33,33,0,0,0,.61,9l11.63,1.92L68.2,44Z"/><path class="cls-5" d="M96.46,36.69C77.66,37.85,56,39,46.77,39.07a2.91,2.91,0,0,1-1.85-.66l-3.64-3"/><path class="cls-6" d="M115.34,42.35l14.07-2.42a22.58,22.58,0,0,0,1.84-9.08L128.8,29l1.53-1.82L129.41,26l.92-.61c-.07-1.11-.18-2.31-.3-3.63l-12.86-1.82c-9.61-3.92-14.69-6.66-22.93-8.08s-23.72-.35-30.32,1.42c-6.3,1.69-10.42,4.81-16.3,8.55a3.86,3.86,0,0,1-1.83.6,186.18,186.18,0,0,0-32.68,4.78l-3.06,3v2.42L8.83,33.87a29.61,29.61,0,0,0,.61,8.48l11.63,1.82,47.13-.91Z"/><path class="cls-2" d="M36.56,29.09l-2.1-1.27c28.61-1.9,49.26-2.41,94.24-2.32C93.81,26.58,74,27.37,39.45,29.78A5,5,0,0,1,36.56,29.09Z"/><path class="cls-7" d="M129.41,41.14l-14.08,2.42-47.13.91-47.13.91L9.24,43.06"/><path class="cls-8" d="M103.9,17.78h0a3,3,0,0,0-1.22-.87A17.25,17.25,0,0,0,100,16a58.91,58.91,0,0,0-8.24-1.53,79,79,0,0,0-19-.3h0c-1,.13-1.91.3-2.87.48h0a52.14,52.14,0,0,0-6.43,1.56,43.89,43.89,0,0,0-12.75,7.41c20.37-1.53,27.1-1.7,45.76-2.15l6.51-.16h0l.27-.15a2.64,2.64,0,0,0,.73-.64,1.76,1.76,0,0,0,.4-1A2.91,2.91,0,0,0,103.9,17.78Z"/><path class="cls-2" d="M80.78,14.15H77.35L74.9,22h4.48Z"/><path class="cls-9" d="M73.66,22.17c2.82,0,2.6-.06,5-.2a8.15,8.15,0,0,0-.1-2.06c-.2-1-.64-1.11-2.62-1.11a1.25,1.25,0,0,0-.86.48A10.25,10.25,0,0,0,73.66,22.17Z"/><path class="cls-9" d="M73.66,22.17c2.82,0,2.6-.06,5-.2a8.15,8.15,0,0,0-.1-2.06c-.2-1-.64-1.11-2.62-1.11a1.25,1.25,0,0,0-.86.48A10.25,10.25,0,0,0,73.66,22.17Z"/><path class="cls-9" d="M73.66,22.17c2.82,0,2.6-.06,5-.2a8.15,8.15,0,0,0-.1-2.06c-.2-1-.64-1.11-2.62-1.11a1.25,1.25,0,0,0-.86.48A10.25,10.25,0,0,0,73.66,22.17Z"/><path class="cls-9" d="M97.15,21.57l4.6,0s1-.72.94-1.43c-.08-.52-2.22-1.89-3.41-1.45l-.32.14a3.44,3.44,0,0,0-.74.49C97.79,19.68,97.65,20.08,97.15,21.57Z"/><path class="cls-9" d="M97.15,21.57l4.6,0s1-.72.94-1.43c-.08-.52-2.22-1.89-3.41-1.45l-.32.14a3.44,3.44,0,0,0-.74.49C97.79,19.68,97.65,20.08,97.15,21.57Z"/><path class="cls-9" d="M97.15,21.57l4.6,0s1-.72.94-1.43c-.08-.52-2.22-1.89-3.41-1.45l-.32.14a3.44,3.44,0,0,0-.74.49C97.79,19.68,97.65,20.08,97.15,21.57Z"/><path class="cls-2" d="M104.3,17.58l-6.59-2,2.67,5.88h2.94l1-2Z"/><path class="cls-10" d="M107.24,47.47a8.82,8.82,0,1,1,8.82-8.82A8.82,8.82,0,0,1,107.24,47.47Z"/><path class="cls-2" d="M107.24,45.51a6.86,6.86,0,1,1,6.86-6.86A6.86,6.86,0,0,1,107.24,45.51Z"/><path class="cls-11" d="M107.24,40.78v4.73"/><path class="cls-11" d="M109.13,39.84l3.61,2.95"/><path class="cls-11" d="M109.61,37.74l4.49-1.06"/><path class="cls-11" d="M108.3,36.05l2-4.26"/><path class="cls-11" d="M106.19,36.05l-2-4.26"/><path class="cls-11" d="M104.88,37.74l-4.5-1.06"/><path class="cls-11" d="M105.35,39.84l-3.61,2.95"/><path class="cls-10" d="M29.82,47.47a8.82,8.82,0,1,1,8.82-8.82A8.82,8.82,0,0,1,29.82,47.47Z"/><path class="cls-2" d="M29.82,45.51a6.86,6.86,0,1,1,6.86-6.86A6.86,6.86,0,0,1,29.82,45.51Z"/><path class="cls-11" d="M29.82,40.78v4.73"/><path class="cls-11" d="M31.71,39.84l3.61,2.95"/><path class="cls-11" d="M32.19,37.74l4.49-1.06"/><path class="cls-11" d="M30.88,36.05l2-4.26"/><path class="cls-11" d="M28.77,36.05l-2-4.26"/><path class="cls-11" d="M27.46,37.74,23,36.68"/><path class="cls-11" d="M27.93,39.84l-3.61,2.95"/><path class="cls-12" d="M79.77,11.44,77.15,22.38c-.73,1.36-2.07,2.93-1.67,4.89S74.63,31,74.63,43M50.45,23.32c-2,1.49-2.89,1.88-3.1,3.72,1.13,2.26-1.35,4.8.59,16.35M103.19,21.5A79.23,79.23,0,0,1,90.66,43"/></svg>