<svg id="Layer_1" data-name="Layer 1" xmlns="http://www.w3.org/2000/svg" viewBox="0 0 140 52"><defs><style>.cls-1{fill:#1a345f;}.cls-13,.cls-2,.cls-9{fill:#164b99;}.cls-3,.cls-6{fill:#fff;}.cls-3{fill-opacity:0.6;}.cls-4{fill:#ceddf1;}.cls-5{fill:#f7fcfe;}.cls-7{fill:#122448;}.cls-11,.cls-12,.cls-8{fill:none;}.cls-11,.cls-12,.cls-8,.cls-9{stroke:#164b99;}.cls-10{fill:#13487f;}.cls-11{stroke-width:0.25px;}.cls-12{stroke-width:0.35px;}.cls-13{stroke:#fff;}</style></defs><path class="cls-1" d="M32.26,47.21a16.52,16.52,0,0,0,5-8.78l-4.61-.34L22.11,48.25Z"/><path class="cls-1" d="M103.64,47.21a16.52,16.52,0,0,1-5-8.78l4.62-.34L113.8,48.25Z"/><ellipse class="cls-2" cx="70" cy="48.22" rx="68.6" ry="1.79"/><path class="cls-3" d="M123.45,38.25l13.25-4.62A2,2,0,0,0,138,32.05l.61-4.29-.78-.66.78-7.29-.6-.58V15.47a2,2,0,0,0-2-2l-37.89.31a1,1,0,0,1-1-.91l-.57-8.26a1.94,1.94,0,0,0-1.8-1.8C91.05,2.58,81.75,2,73.16,2,65,2,58.1,2.36,54.77,2.57a7.64,7.64,0,0,0-3.88,1.37L37,13.68a6.94,6.94,0,0,1-3.81,1.24c-14.05.37-20.53,1.33-28.41,2.87a2,2,0,0,0-1.57,1.8L2.8,26.53l.51,1.67v1.91l-.79.66v3.05a2,2,0,0,0,1.06,1.74l7.58,3.92,23.18-.77h67.73Z"/><path class="cls-4" d="M123.45,38.25l13.25-4.62A2,2,0,0,0,138,32.05l.61-4.29-.78-.66.78-7.29-.6-.58V15.47a2,2,0,0,0-2-2l-37.89.31a1,1,0,0,1-1-.91l-.57-8.26a1.94,1.94,0,0,0-1.8-1.8C91.05,2.58,81.75,2,73.16,2,65,2,58.1,2.36,54.77,2.57a7.64,7.64,0,0,0-3.88,1.37L37,13.68a6.94,6.94,0,0,1-3.81,1.24c-14.05.37-20.53,1.33-28.41,2.87a2,2,0,0,0-1.57,1.8L2.8,26.53l.51,1.67v1.91l-.79.66v3.05a2,2,0,0,0,1.06,1.74l7.58,3.92,23.18-.77h67.73Z"/><path class="cls-5" d="M80.9,28.42,3.45,28.16c-.66-3.89-.39-8.61.46-10.43C14.17,15.18,21.3,15,38.83,14.35L54.33,4.18,73.9,3.63l14.6.28L91,4.07A2,2,0,0,1,92.79,6v8.12a7.85,7.85,0,0,1-1.64,4.8l-5.58,7.2A5.91,5.91,0,0,1,80.9,28.42Z"/><path class="cls-6" d="M89.27,11.82l-5.72,3.23a5.92,5.92,0,0,1-2.79.76l-27.63.46H11.89c10.55-1.25,15.91-1.5,27.4-1.93l15-10.4,19.54-.48,15.44.45a1,1,0,0,1,1,1v5.23A2,2,0,0,1,89.27,11.82Z"/><path class="cls-2" d="M124.18,38.4l12.59-4.73A2,2,0,0,0,138,32l.37-5.55S136,28.18,134.6,29s-21.32,4.76-21.32,4.76L100,32.25l-79.44.9-8.91-5.27H8.84a1,1,0,0,1-1-1v-4a1,1,0,0,0-1-1H3v4.3l.51,1.67V29.8l-1.14.72v3.07a2,2,0,0,0,1,1.73L12.15,40l22.2-.84h67.77Z"/><path class="cls-7" d="M17.17,22.15c4.19-.17,9-.07,12,0a4.48,4.48,0,0,1,4,2.68,58.69,58.69,0,0,1,4.12,13.72L11.33,39,8.81,37.74c1.13-5.66,2.2-9,4.57-13.26A4.53,4.53,0,0,1,17.17,22.15Z"/><path class="cls-8" d="M8.55,37.94a42.49,42.49,0,0,1,4.58-13.58A4.53,4.53,0,0,1,16.94,22c4.24-.17,9.11-.06,12,0a4.44,4.44,0,0,1,3.92,2.51A52.81,52.81,0,0,1,37.5,38.83"/><path class="cls-7" d="M106.93,22.71c4.38-.18,9.43-.08,12.37,0A4.21,4.21,0,0,1,123,25a34.11,34.11,0,0,1,3.62,12.37l-3.17,1.16L101.17,39h-3a44.89,44.89,0,0,1,5-13.94A4.5,4.5,0,0,1,106.93,22.71Z"/><path class="cls-8" d="M97.87,38.87A45.67,45.67,0,0,1,103,24.72a4.53,4.53,0,0,1,3.77-2.31c4.41-.17,9.53-.05,12.5.05A4.32,4.32,0,0,1,123,24.71a41.28,41.28,0,0,1,4.22,12.51"/><path class="cls-9" d="M88.94,8.93V4.79a.49.49,0,0,0-.47-.49c-12.39-.49-20.22-.52-32.24,0a6.45,6.45,0,0,0-3.22,1L39.76,14l40.68-.28a9.37,9.37,0,0,0,4.22-1l3-1.54A2.45,2.45,0,0,0,88.94,8.93Z"/><path class="cls-10" d="M62.16,14.24c2.82,0,2.51.14,4.9,0a5.79,5.79,0,0,0,0-2c-.19-1-.64-1.1-2.62-1.1a1.24,1.24,0,0,0-.86.48A7.85,7.85,0,0,0,62.16,14.24Z"/><path class="cls-10" d="M62.16,14.24c2.82,0,2.51.14,4.9,0a5.79,5.79,0,0,0,0-2c-.19-1-.64-1.1-2.62-1.1a1.24,1.24,0,0,0-.86.48A7.85,7.85,0,0,0,62.16,14.24Z"/><path class="cls-10" d="M62.16,14.24c2.82,0,2.51.14,4.9,0a5.79,5.79,0,0,0,0-2c-.19-1-.64-1.1-2.62-1.1a1.24,1.24,0,0,0-.86.48A7.85,7.85,0,0,0,62.16,14.24Z"/><path class="cls-2" d="M71.44,3.55h-3L66.08,14.24H71Z"/><path class="cls-10" d="M83.72,12.94c.89,0,1-.17,2.45-.66,0,0,2.56-1.25,2.45-2C88.54,9.8,87,9.6,85.85,10l-.33.14a3.42,3.42,0,0,0-.73.49C84.36,11.05,84.22,11.46,83.72,12.94Z"/><path class="cls-10" d="M83.72,12.94c.89,0,1-.17,2.45-.66,0,0,2.56-1.25,2.45-2C88.54,9.8,87,9.6,85.85,10l-.33.14a3.42,3.42,0,0,0-.73.49C84.36,11.05,84.22,11.46,83.72,12.94Z"/><path class="cls-10" d="M83.72,12.94c.89,0,1-.17,2.45-.66,0,0,2.56-1.25,2.45-2C88.54,9.8,87,9.6,85.85,10l-.33.14a3.42,3.42,0,0,0-.73.49C84.36,11.05,84.22,11.46,83.72,12.94Z"/><path class="cls-11" d="M66.53,14c-1.29,3.66-1.46,8.37-.86,18.57M39.2,14.44c-2,1.45-2.21,4-2.41,5.82-.17,3.63-.11,5.83,1.56,12.67"/><path class="cls-6" d="M97.29,13.56l38.82-.32,1.42.87.38,1.19-38.65.32a2,2,0,0,1-2-2Z"/><path class="cls-12" d="M138.34,26.41l-.67-.71.93-6.21-.6-.58V15.16a2,2,0,0,0-2-2l-37.88.3a1,1,0,0,1-1-.92l-.45-7.86a1.94,1.94,0,0,0-1.78-1.83C91.29,2.61,82.31,2,73.77,2c-8.2,0-15.62.3-19.17.48a7.58,7.58,0,0,0-4,1.39L37,13.36a7,7,0,0,1-3.81,1.25C19.15,15,12.67,15.93,4.79,17.47a2,2,0,0,0-1.57,1.81L2.8,26.21l.51,1.67V29.8l-.79.65"/><ellipse class="cls-2" cx="112.52" cy="37.41" rx="11.48" ry="11.41"/><path class="cls-13" d="M120.36,37.4a7.84,7.84,0,1,0-7.84,7.78A7.81,7.81,0,0,0,120.36,37.4Z"/><path class="cls-6" d="M111.82,40a.49.49,0,0,0-.49.49v3.13a.49.49,0,0,0,.48.49h1.26a.48.48,0,0,0,.5-.49V40.48a.49.49,0,0,0-.49-.49Z"/><path class="cls-6" d="M114.57,38.92a.49.49,0,0,0,.32.62l3,1a.5.5,0,0,0,.62-.32L118.9,39a.48.48,0,0,0-.31-.62l-3-1a.48.48,0,0,0-.62.31Z"/><path class="cls-6" d="M114.41,36a.49.49,0,0,0,.68-.1L117,33.35a.5.5,0,0,0-.11-.69l-1-.73a.49.49,0,0,0-.68.11l-1.86,2.54a.5.5,0,0,0,.11.69Z"/><path class="cls-6" d="M111.54,35.25a.48.48,0,0,0,.11-.68L109.81,32a.48.48,0,0,0-.68-.11l-1,.72a.5.5,0,0,0-.11.69l1.85,2.53a.48.48,0,0,0,.68.11Z"/><path class="cls-6" d="M110,37.71a.5.5,0,0,0-.62-.31l-3,1A.48.48,0,0,0,106,39l.37,1.18a.5.5,0,0,0,.62.32l3-1a.48.48,0,0,0,.31-.62Z"/><ellipse class="cls-2" cx="22.73" cy="37.4" rx="11.48" ry="11.41"/><path class="cls-13" d="M30.56,37.4a7.84,7.84,0,1,0-7.84,7.78A7.81,7.81,0,0,0,30.56,37.4Z"/><path class="cls-6" d="M22,40a.49.49,0,0,0-.49.49v3.13a.49.49,0,0,0,.48.49h1.26a.5.5,0,0,0,.5-.49V40.48a.49.49,0,0,0-.49-.49Z"/><path class="cls-6" d="M24.77,38.92a.49.49,0,0,0,.32.62l3,1a.48.48,0,0,0,.62-.31L29.1,39a.49.49,0,0,0-.32-.62l-3-1a.49.49,0,0,0-.61.32Z"/><path class="cls-6" d="M24.61,36a.49.49,0,0,0,.68-.1l1.86-2.54a.5.5,0,0,0-.11-.69l-1-.73a.49.49,0,0,0-.68.11L23.5,34.58a.5.5,0,0,0,.11.69Z"/><path class="cls-6" d="M21.74,35.25a.48.48,0,0,0,.11-.68L20,32a.48.48,0,0,0-.68-.11l-1,.72a.49.49,0,0,0-.11.69l1.85,2.53a.48.48,0,0,0,.68.11Z"/><path class="cls-6" d="M20.15,37.71a.5.5,0,0,0-.62-.31l-3,1a.48.48,0,0,0-.32.61l.37,1.18a.49.49,0,0,0,.62.32l3-1a.48.48,0,0,0,.31-.62Z"/></svg>